<mxfile host="app.diagrams.net" agent="Mozilla/5.0 (Windows NT 10.0; Win64; x64; rv:144.0) Gecko/20100101 Firefox/144.0" version="28.2.8">
  <diagram name="PÃ¡gina-1" id="E8SdchtY1EhiDgucepD_">
    <mxGraphModel dx="2037" dy="1113" grid="1" gridSize="10" guides="1" tooltips="1" connect="1" arrows="1" fold="1" page="1" pageScale="1" pageWidth="850" pageHeight="1100" math="0" shadow="0">
      <root>
        <mxCell id="0" />
        <mxCell id="1" parent="0" />
        <mxCell id="ungy1zJnQsFXrOy20gZX-1" value="" style="ellipse;whiteSpace=wrap;html=1;fillColor=none;" vertex="1" parent="1">
          <mxGeometry x="210" y="680" width="260" height="240" as="geometry" />
        </mxCell>
        <mxCell id="ungy1zJnQsFXrOy20gZX-2" style="edgeStyle=orthogonalEdgeStyle;rounded=0;orthogonalLoop=1;jettySize=auto;html=1;entryX=0;entryY=0.5;entryDx=0;entryDy=0;exitX=0.5;exitY=0;exitDx=0;exitDy=0;exitPerimeter=0;endArrow=none;endFill=0;strokeColor=light-dark(#000000,#FFCE9F);" edge="1" parent="1" source="ungy1zJnQsFXrOy20gZX-5" target="ungy1zJnQsFXrOy20gZX-29">
          <mxGeometry relative="1" as="geometry" />
        </mxCell>
        <mxCell id="ungy1zJnQsFXrOy20gZX-3" style="edgeStyle=orthogonalEdgeStyle;rounded=0;orthogonalLoop=1;jettySize=auto;html=1;entryX=0.006;entryY=0.423;entryDx=0;entryDy=0;exitX=0.75;exitY=0.1;exitDx=0;exitDy=0;exitPerimeter=0;endArrow=none;endFill=0;entryPerimeter=0;strokeColor=light-dark(#000000,#FFCE9F);" edge="1" parent="1" source="ungy1zJnQsFXrOy20gZX-5" target="ungy1zJnQsFXrOy20gZX-30">
          <mxGeometry relative="1" as="geometry" />
        </mxCell>
        <mxCell id="ungy1zJnQsFXrOy20gZX-4" style="edgeStyle=orthogonalEdgeStyle;rounded=0;orthogonalLoop=1;jettySize=auto;html=1;entryX=0.054;entryY=0.329;entryDx=0;entryDy=0;exitX=1;exitY=1;exitDx=0;exitDy=0;exitPerimeter=0;entryPerimeter=0;endArrow=none;endFill=0;strokeColor=light-dark(#000000,#FFCE9F);" edge="1" parent="1" source="ungy1zJnQsFXrOy20gZX-5" target="ungy1zJnQsFXrOy20gZX-31">
          <mxGeometry relative="1" as="geometry">
            <Array as="points">
              <mxPoint x="770" y="490" />
              <mxPoint x="895" y="490" />
            </Array>
          </mxGeometry>
        </mxCell>
        <mxCell id="ungy1zJnQsFXrOy20gZX-5" value="Actor" style="shape=umlActor;verticalLabelPosition=bottom;verticalAlign=top;html=1;fillColor=#0050ef;fontColor=#ffffff;strokeColor=#001DBC;" vertex="1" parent="1">
          <mxGeometry x="720" y="390" width="50" height="90" as="geometry" />
        </mxCell>
        <mxCell id="ungy1zJnQsFXrOy20gZX-6" style="edgeStyle=orthogonalEdgeStyle;rounded=0;orthogonalLoop=1;jettySize=auto;html=1;entryX=0;entryY=0.5;entryDx=0;entryDy=0;exitX=0.75;exitY=0.1;exitDx=0;exitDy=0;exitPerimeter=0;endArrow=none;endFill=0;strokeColor=light-dark(#000000,#F19C99);" edge="1" parent="1" source="ungy1zJnQsFXrOy20gZX-10" target="ungy1zJnQsFXrOy20gZX-42">
          <mxGeometry relative="1" as="geometry">
            <Array as="points">
              <mxPoint x="757" y="820" />
              <mxPoint x="830" y="820" />
              <mxPoint x="830" y="750" />
            </Array>
          </mxGeometry>
        </mxCell>
        <mxCell id="ungy1zJnQsFXrOy20gZX-7" style="edgeStyle=orthogonalEdgeStyle;rounded=0;orthogonalLoop=1;jettySize=auto;html=1;exitX=0.75;exitY=0.1;exitDx=0;exitDy=0;exitPerimeter=0;entryX=0;entryY=0.5;entryDx=0;entryDy=0;endArrow=none;endFill=0;strokeColor=light-dark(#000000,#F19C99);" edge="1" parent="1" source="ungy1zJnQsFXrOy20gZX-10" target="ungy1zJnQsFXrOy20gZX-43">
          <mxGeometry relative="1" as="geometry">
            <Array as="points">
              <mxPoint x="830" y="820" />
              <mxPoint x="830" y="855" />
            </Array>
          </mxGeometry>
        </mxCell>
        <mxCell id="ungy1zJnQsFXrOy20gZX-8" style="edgeStyle=orthogonalEdgeStyle;rounded=0;orthogonalLoop=1;jettySize=auto;html=1;exitX=0.75;exitY=0.1;exitDx=0;exitDy=0;exitPerimeter=0;entryX=0;entryY=0.5;entryDx=0;entryDy=0;endArrow=none;endFill=0;strokeColor=light-dark(#000000,#F19C99);" edge="1" parent="1" source="ungy1zJnQsFXrOy20gZX-10" target="ungy1zJnQsFXrOy20gZX-45">
          <mxGeometry relative="1" as="geometry">
            <Array as="points">
              <mxPoint x="830" y="819" />
              <mxPoint x="830" y="1070" />
            </Array>
          </mxGeometry>
        </mxCell>
        <mxCell id="ungy1zJnQsFXrOy20gZX-9" style="edgeStyle=orthogonalEdgeStyle;rounded=0;orthogonalLoop=1;jettySize=auto;html=1;entryX=0;entryY=0.5;entryDx=0;entryDy=0;endArrow=none;endFill=0;strokeColor=light-dark(#000000,#F19C99);" edge="1" parent="1" target="ungy1zJnQsFXrOy20gZX-44">
          <mxGeometry relative="1" as="geometry">
            <mxPoint x="760" y="820" as="sourcePoint" />
            <Array as="points">
              <mxPoint x="830" y="820" />
              <mxPoint x="830" y="970" />
            </Array>
          </mxGeometry>
        </mxCell>
        <mxCell id="ungy1zJnQsFXrOy20gZX-10" value="Actor" style="shape=umlActor;verticalLabelPosition=bottom;verticalAlign=top;html=1;fillColor=#0050ef;fontColor=#ffffff;strokeColor=#001DBC;" vertex="1" parent="1">
          <mxGeometry x="720" y="810" width="50" height="90" as="geometry" />
        </mxCell>
        <mxCell id="ungy1zJnQsFXrOy20gZX-11" value="Cliente" style="text;html=1;align=center;verticalAlign=middle;whiteSpace=wrap;rounded=0;strokeWidth=9;fontColor=light-dark(#000000,#7BB4D9);fontSize=27;" vertex="1" parent="1">
          <mxGeometry x="720" y="490" width="60" height="30" as="geometry" />
        </mxCell>
        <mxCell id="ungy1zJnQsFXrOy20gZX-12" value="Director" style="text;html=1;align=center;verticalAlign=middle;whiteSpace=wrap;rounded=0;strokeWidth=9;fontColor=light-dark(#000000,#7BB4D9);fontSize=27;" vertex="1" parent="1">
          <mxGeometry x="720" y="910" width="60" height="30" as="geometry" />
        </mxCell>
        <mxCell id="ungy1zJnQsFXrOy20gZX-13" style="edgeStyle=orthogonalEdgeStyle;rounded=0;orthogonalLoop=1;jettySize=auto;html=1;entryX=0;entryY=1;entryDx=0;entryDy=0;exitX=0.75;exitY=0.1;exitDx=0;exitDy=0;exitPerimeter=0;endArrow=none;endFill=0;strokeColor=light-dark(#000000,#99CCFF);" edge="1" parent="1" source="ungy1zJnQsFXrOy20gZX-17" target="ungy1zJnQsFXrOy20gZX-42">
          <mxGeometry relative="1" as="geometry">
            <Array as="points">
              <mxPoint x="890" y="1030" />
              <mxPoint x="890" y="778" />
            </Array>
          </mxGeometry>
        </mxCell>
        <mxCell id="ungy1zJnQsFXrOy20gZX-14" style="edgeStyle=orthogonalEdgeStyle;rounded=0;orthogonalLoop=1;jettySize=auto;html=1;entryX=0;entryY=1;entryDx=0;entryDy=0;exitX=0.75;exitY=0.1;exitDx=0;exitDy=0;exitPerimeter=0;endArrow=none;endFill=0;strokeColor=light-dark(#000000,#99CCFF);" edge="1" parent="1" source="ungy1zJnQsFXrOy20gZX-17" target="ungy1zJnQsFXrOy20gZX-43">
          <mxGeometry relative="1" as="geometry">
            <Array as="points">
              <mxPoint x="890" y="1029" />
              <mxPoint x="890" y="883" />
            </Array>
          </mxGeometry>
        </mxCell>
        <mxCell id="ungy1zJnQsFXrOy20gZX-15" style="edgeStyle=orthogonalEdgeStyle;rounded=0;orthogonalLoop=1;jettySize=auto;html=1;entryX=0;entryY=1;entryDx=0;entryDy=0;endArrow=none;endFill=0;strokeColor=light-dark(#000000,#99CCFF);" edge="1" parent="1" target="ungy1zJnQsFXrOy20gZX-44">
          <mxGeometry relative="1" as="geometry">
            <mxPoint x="770" y="1030" as="sourcePoint" />
          </mxGeometry>
        </mxCell>
        <mxCell id="ungy1zJnQsFXrOy20gZX-16" style="edgeStyle=orthogonalEdgeStyle;rounded=0;orthogonalLoop=1;jettySize=auto;html=1;entryX=0;entryY=1;entryDx=0;entryDy=0;endArrow=none;endFill=0;strokeColor=light-dark(#000000,#99CCFF);" edge="1" parent="1" target="ungy1zJnQsFXrOy20gZX-45">
          <mxGeometry relative="1" as="geometry">
            <mxPoint x="770" y="1030" as="sourcePoint" />
            <Array as="points">
              <mxPoint x="890" y="1030" />
              <mxPoint x="890" y="1098" />
            </Array>
          </mxGeometry>
        </mxCell>
        <mxCell id="ungy1zJnQsFXrOy20gZX-17" value="Actor" style="shape=umlActor;verticalLabelPosition=bottom;verticalAlign=top;html=1;fillColor=#0050ef;fontColor=#ffffff;strokeColor=#001DBC;" vertex="1" parent="1">
          <mxGeometry x="730" y="1020" width="50" height="90" as="geometry" />
        </mxCell>
        <mxCell id="ungy1zJnQsFXrOy20gZX-18" value="Operario" style="text;html=1;align=center;verticalAlign=middle;whiteSpace=wrap;rounded=0;strokeWidth=9;fontColor=light-dark(#000000,#7BB4D9);fontSize=27;" vertex="1" parent="1">
          <mxGeometry x="730" y="1120" width="60" height="30" as="geometry" />
        </mxCell>
        <mxCell id="ungy1zJnQsFXrOy20gZX-19" style="edgeStyle=orthogonalEdgeStyle;rounded=0;orthogonalLoop=1;jettySize=auto;html=1;exitX=0.75;exitY=0.1;exitDx=0;exitDy=0;exitPerimeter=0;entryX=0;entryY=0.5;entryDx=0;entryDy=0;endArrow=none;endFill=0;strokeColor=light-dark(#000000,#9AC7BF);" edge="1" parent="1" source="ungy1zJnQsFXrOy20gZX-20" target="ungy1zJnQsFXrOy20gZX-50">
          <mxGeometry relative="1" as="geometry">
            <Array as="points">
              <mxPoint x="940" y="1269" />
            </Array>
          </mxGeometry>
        </mxCell>
        <mxCell id="ungy1zJnQsFXrOy20gZX-20" value="Actor" style="shape=umlActor;verticalLabelPosition=bottom;verticalAlign=top;html=1;fillColor=#0050ef;fontColor=#ffffff;strokeColor=#001DBC;" vertex="1" parent="1">
          <mxGeometry x="730" y="1260" width="50" height="90" as="geometry" />
        </mxCell>
        <mxCell id="ungy1zJnQsFXrOy20gZX-21" value="Administrador" style="text;html=1;align=center;verticalAlign=middle;whiteSpace=wrap;rounded=0;strokeWidth=9;fontColor=light-dark(#000000,#7BB4D9);fontSize=27;" vertex="1" parent="1">
          <mxGeometry x="730" y="1360" width="60" height="30" as="geometry" />
        </mxCell>
        <mxCell id="ungy1zJnQsFXrOy20gZX-22" value="Cambiar ContraseÃ±a" style="ellipse;whiteSpace=wrap;html=1;" vertex="1" parent="1">
          <mxGeometry x="230" y="765" width="100" height="70" as="geometry" />
        </mxCell>
        <mxCell id="ungy1zJnQsFXrOy20gZX-23" value="Iniciar Seccion" style="ellipse;whiteSpace=wrap;html=1;" vertex="1" parent="1">
          <mxGeometry x="350" y="720" width="80" height="70" as="geometry" />
        </mxCell>
        <mxCell id="ungy1zJnQsFXrOy20gZX-24" value="Cerrar Seccion" style="ellipse;whiteSpace=wrap;html=1;" vertex="1" parent="1">
          <mxGeometry x="350" y="810" width="80" height="70" as="geometry" />
        </mxCell>
        <mxCell id="ungy1zJnQsFXrOy20gZX-25" style="edgeStyle=orthogonalEdgeStyle;rounded=0;orthogonalLoop=1;jettySize=auto;html=1;exitX=0.5;exitY=0;exitDx=0;exitDy=0;endArrow=none;endFill=0;" edge="1" parent="1" source="ungy1zJnQsFXrOy20gZX-1" target="ungy1zJnQsFXrOy20gZX-5">
          <mxGeometry relative="1" as="geometry">
            <Array as="points">
              <mxPoint x="340" y="420" />
            </Array>
          </mxGeometry>
        </mxCell>
        <mxCell id="ungy1zJnQsFXrOy20gZX-26" style="edgeStyle=orthogonalEdgeStyle;rounded=0;orthogonalLoop=1;jettySize=auto;html=1;entryX=0;entryY=0.3333333333333333;entryDx=0;entryDy=0;entryPerimeter=0;endArrow=none;endFill=0;" edge="1" parent="1" source="ungy1zJnQsFXrOy20gZX-1" target="ungy1zJnQsFXrOy20gZX-10">
          <mxGeometry relative="1" as="geometry" />
        </mxCell>
        <mxCell id="ungy1zJnQsFXrOy20gZX-27" style="edgeStyle=orthogonalEdgeStyle;rounded=0;orthogonalLoop=1;jettySize=auto;html=1;entryX=0;entryY=0.3333333333333333;entryDx=0;entryDy=0;entryPerimeter=0;endArrow=none;endFill=0;" edge="1" parent="1" source="ungy1zJnQsFXrOy20gZX-1" target="ungy1zJnQsFXrOy20gZX-17">
          <mxGeometry relative="1" as="geometry">
            <Array as="points">
              <mxPoint x="340" y="1050" />
            </Array>
          </mxGeometry>
        </mxCell>
        <mxCell id="ungy1zJnQsFXrOy20gZX-28" style="edgeStyle=orthogonalEdgeStyle;rounded=0;orthogonalLoop=1;jettySize=auto;html=1;entryX=0;entryY=0.3333333333333333;entryDx=0;entryDy=0;entryPerimeter=0;exitX=0.343;exitY=0.974;exitDx=0;exitDy=0;exitPerimeter=0;" edge="1" parent="1" source="ungy1zJnQsFXrOy20gZX-1" target="ungy1zJnQsFXrOy20gZX-20">
          <mxGeometry relative="1" as="geometry">
            <mxPoint x="300" y="920" as="sourcePoint" />
            <Array as="points">
              <mxPoint x="299" y="1290" />
            </Array>
          </mxGeometry>
        </mxCell>
        <mxCell id="ungy1zJnQsFXrOy20gZX-29" value="Cancelar Orden de Trabajo&amp;nbsp;" style="ellipse;whiteSpace=wrap;html=1;fontSize=15;" vertex="1" parent="1">
          <mxGeometry x="890" y="280" width="100" height="70" as="geometry" />
        </mxCell>
        <mxCell id="ungy1zJnQsFXrOy20gZX-30" value="Editar Orden de Trabajo&amp;nbsp;" style="ellipse;whiteSpace=wrap;html=1;fontSize=15;" vertex="1" parent="1">
          <mxGeometry x="890" y="370" width="100" height="70" as="geometry" />
        </mxCell>
        <mxCell id="ungy1zJnQsFXrOy20gZX-31" value="Creacion Orden de Trabajo&amp;nbsp;" style="ellipse;whiteSpace=wrap;html=1;fontSize=15;fillColor=light-dark(#FFFFFF,#00994D);" vertex="1" parent="1">
          <mxGeometry x="890" y="470" width="100" height="70" as="geometry" />
        </mxCell>
        <mxCell id="ungy1zJnQsFXrOy20gZX-32" style="edgeStyle=orthogonalEdgeStyle;rounded=0;orthogonalLoop=1;jettySize=auto;html=1;exitX=0.5;exitY=1;exitDx=0;exitDy=0;endArrow=none;endFill=0;strokeColor=light-dark(#000000,#FFCE9F);" edge="1" parent="1" source="ungy1zJnQsFXrOy20gZX-33" target="ungy1zJnQsFXrOy20gZX-35">
          <mxGeometry relative="1" as="geometry" />
        </mxCell>
        <mxCell id="ungy1zJnQsFXrOy20gZX-33" value="SelecciÃ³n de Equipo" style="ellipse;whiteSpace=wrap;html=1;fontSize=15;" vertex="1" parent="1">
          <mxGeometry x="1180" y="560" width="100" height="70" as="geometry" />
        </mxCell>
        <mxCell id="ungy1zJnQsFXrOy20gZX-34" value="Asignar Personal" style="ellipse;whiteSpace=wrap;html=1;fontSize=15;" vertex="1" parent="1">
          <mxGeometry x="1350" y="510" width="100" height="70" as="geometry" />
        </mxCell>
        <mxCell id="ungy1zJnQsFXrOy20gZX-35" value="Asignar materiales e instrumentos" style="ellipse;whiteSpace=wrap;html=1;fontSize=15;" vertex="1" parent="1">
          <mxGeometry x="1345" y="610" width="130" height="80" as="geometry" />
        </mxCell>
        <mxCell id="ungy1zJnQsFXrOy20gZX-36" style="edgeStyle=orthogonalEdgeStyle;rounded=0;orthogonalLoop=1;jettySize=auto;html=1;entryX=0.024;entryY=0.348;entryDx=0;entryDy=0;entryPerimeter=0;exitX=0.5;exitY=0;exitDx=0;exitDy=0;endArrow=none;endFill=0;strokeColor=light-dark(#000000,#FFCE9F);" edge="1" parent="1" source="ungy1zJnQsFXrOy20gZX-33" target="ungy1zJnQsFXrOy20gZX-34">
          <mxGeometry relative="1" as="geometry" />
        </mxCell>
        <mxCell id="ungy1zJnQsFXrOy20gZX-37" style="edgeStyle=orthogonalEdgeStyle;rounded=0;orthogonalLoop=1;jettySize=auto;html=1;entryX=0.207;entryY=0.068;entryDx=0;entryDy=0;entryPerimeter=0;endArrow=none;endFill=0;strokeColor=light-dark(#000000,#FFCE9F);" edge="1" parent="1" source="ungy1zJnQsFXrOy20gZX-31" target="ungy1zJnQsFXrOy20gZX-33">
          <mxGeometry relative="1" as="geometry" />
        </mxCell>
        <mxCell id="ungy1zJnQsFXrOy20gZX-38" style="edgeStyle=orthogonalEdgeStyle;rounded=0;orthogonalLoop=1;jettySize=auto;html=1;entryX=0;entryY=0.5;entryDx=0;entryDy=0;exitX=0.5;exitY=0;exitDx=0;exitDy=0;endArrow=none;endFill=0;" edge="1" parent="1" source="ungy1zJnQsFXrOy20gZX-42" target="ungy1zJnQsFXrOy20gZX-33">
          <mxGeometry relative="1" as="geometry" />
        </mxCell>
        <mxCell id="ungy1zJnQsFXrOy20gZX-39" style="edgeStyle=orthogonalEdgeStyle;rounded=0;orthogonalLoop=1;jettySize=auto;html=1;entryX=0;entryY=0.5;entryDx=0;entryDy=0;endArrow=none;endFill=0;strokeColor=light-dark(#000000,#FF9999);" edge="1" parent="1" source="ungy1zJnQsFXrOy20gZX-42" target="ungy1zJnQsFXrOy20gZX-46">
          <mxGeometry relative="1" as="geometry" />
        </mxCell>
        <mxCell id="ungy1zJnQsFXrOy20gZX-40" style="edgeStyle=orthogonalEdgeStyle;rounded=0;orthogonalLoop=1;jettySize=auto;html=1;entryX=0;entryY=0.5;entryDx=0;entryDy=0;endArrow=none;endFill=0;strokeColor=light-dark(#000000,#FF9999);" edge="1" parent="1" source="ungy1zJnQsFXrOy20gZX-42" target="ungy1zJnQsFXrOy20gZX-47">
          <mxGeometry relative="1" as="geometry" />
        </mxCell>
        <mxCell id="ungy1zJnQsFXrOy20gZX-41" style="edgeStyle=orthogonalEdgeStyle;rounded=0;orthogonalLoop=1;jettySize=auto;html=1;entryX=0;entryY=0.5;entryDx=0;entryDy=0;endArrow=none;endFill=0;strokeColor=light-dark(#000000,#FF9999);" edge="1" parent="1" source="ungy1zJnQsFXrOy20gZX-42" target="ungy1zJnQsFXrOy20gZX-48">
          <mxGeometry relative="1" as="geometry" />
        </mxCell>
        <mxCell id="ungy1zJnQsFXrOy20gZX-42" value="Seleccion Orden de Trabajo" style="ellipse;whiteSpace=wrap;html=1;fontSize=15;" vertex="1" parent="1">
          <mxGeometry x="930" y="710" width="130" height="80" as="geometry" />
        </mxCell>
        <mxCell id="ungy1zJnQsFXrOy20gZX-43" value="Visualizar Ordenes de Trabajo" style="ellipse;whiteSpace=wrap;html=1;fontSize=15;fillColor=light-dark(#FFFFFF,#00994D);" vertex="1" parent="1">
          <mxGeometry x="930" y="815" width="130" height="80" as="geometry" />
        </mxCell>
        <mxCell id="ungy1zJnQsFXrOy20gZX-44" value="Filtrar" style="ellipse;whiteSpace=wrap;html=1;fontSize=15;" vertex="1" parent="1">
          <mxGeometry x="930" y="930" width="130" height="80" as="geometry" />
        </mxCell>
        <mxCell id="ungy1zJnQsFXrOy20gZX-45" value="V&lt;span style=&quot;background-color: transparent; color: light-dark(rgb(0, 0, 0), rgb(255, 255, 255));&quot;&gt;er Status de Orden de Trabajo&lt;/span&gt;" style="ellipse;whiteSpace=wrap;html=1;fontSize=15;" vertex="1" parent="1">
          <mxGeometry x="930" y="1030" width="130" height="80" as="geometry" />
        </mxCell>
        <mxCell id="ungy1zJnQsFXrOy20gZX-46" value="Llenar Acta" style="ellipse;whiteSpace=wrap;html=1;fontSize=15;" vertex="1" parent="1">
          <mxGeometry x="1190" y="715" width="100" height="70" as="geometry" />
        </mxCell>
        <mxCell id="ungy1zJnQsFXrOy20gZX-47" value="Finalizar Acta" style="ellipse;whiteSpace=wrap;html=1;fontSize=15;" vertex="1" parent="1">
          <mxGeometry x="1190" y="800" width="100" height="70" as="geometry" />
        </mxCell>
        <mxCell id="ungy1zJnQsFXrOy20gZX-48" value="Descargar Acta de PDF" style="ellipse;whiteSpace=wrap;html=1;fontSize=15;" vertex="1" parent="1">
          <mxGeometry x="1190" y="890" width="100" height="70" as="geometry" />
        </mxCell>
        <mxCell id="ungy1zJnQsFXrOy20gZX-49" style="edgeStyle=orthogonalEdgeStyle;rounded=0;orthogonalLoop=1;jettySize=auto;html=1;entryX=0;entryY=0.5;entryDx=0;entryDy=0;endArrow=none;endFill=0;" edge="1" parent="1" source="ungy1zJnQsFXrOy20gZX-50" target="ungy1zJnQsFXrOy20gZX-59">
          <mxGeometry relative="1" as="geometry" />
        </mxCell>
        <mxCell id="ungy1zJnQsFXrOy20gZX-50" value="Asignar Rol" style="ellipse;whiteSpace=wrap;html=1;fontSize=15;" vertex="1" parent="1">
          <mxGeometry x="940" y="1240" width="130" height="80" as="geometry" />
        </mxCell>
        <mxCell id="ungy1zJnQsFXrOy20gZX-51" style="edgeStyle=orthogonalEdgeStyle;rounded=0;orthogonalLoop=1;jettySize=auto;html=1;entryX=0;entryY=0.5;entryDx=0;entryDy=0;endArrow=none;endFill=0;strokeColor=light-dark(#000000,#9AC7BF);" edge="1" parent="1" source="ungy1zJnQsFXrOy20gZX-54" target="ungy1zJnQsFXrOy20gZX-56">
          <mxGeometry relative="1" as="geometry" />
        </mxCell>
        <mxCell id="ungy1zJnQsFXrOy20gZX-52" style="edgeStyle=orthogonalEdgeStyle;rounded=0;orthogonalLoop=1;jettySize=auto;html=1;entryX=0;entryY=0.5;entryDx=0;entryDy=0;endArrow=none;endFill=0;strokeColor=light-dark(#000000,#9AC7BF);" edge="1" parent="1" source="ungy1zJnQsFXrOy20gZX-54" target="ungy1zJnQsFXrOy20gZX-57">
          <mxGeometry relative="1" as="geometry" />
        </mxCell>
        <mxCell id="ungy1zJnQsFXrOy20gZX-53" style="edgeStyle=orthogonalEdgeStyle;rounded=0;orthogonalLoop=1;jettySize=auto;html=1;entryX=0;entryY=0.5;entryDx=0;entryDy=0;endArrow=none;endFill=0;strokeColor=light-dark(#000000,#9AC7BF);" edge="1" parent="1" source="ungy1zJnQsFXrOy20gZX-54" target="ungy1zJnQsFXrOy20gZX-58">
          <mxGeometry relative="1" as="geometry" />
        </mxCell>
        <mxCell id="ungy1zJnQsFXrOy20gZX-54" value="Gestion Usuarios" style="ellipse;whiteSpace=wrap;html=1;fontSize=15;" vertex="1" parent="1">
          <mxGeometry x="940" y="1340" width="130" height="80" as="geometry" />
        </mxCell>
        <mxCell id="ungy1zJnQsFXrOy20gZX-55" style="edgeStyle=orthogonalEdgeStyle;rounded=0;orthogonalLoop=1;jettySize=auto;html=1;entryX=0.023;entryY=0.6;entryDx=0;entryDy=0;entryPerimeter=0;exitX=0.75;exitY=0.1;exitDx=0;exitDy=0;exitPerimeter=0;endArrow=none;endFill=0;strokeColor=light-dark(#000000,#9AC7BF);" edge="1" parent="1" source="ungy1zJnQsFXrOy20gZX-20" target="ungy1zJnQsFXrOy20gZX-54">
          <mxGeometry relative="1" as="geometry" />
        </mxCell>
        <mxCell id="ungy1zJnQsFXrOy20gZX-56" value="Crear Usuario" style="ellipse;whiteSpace=wrap;html=1;fontSize=15;fillColor=light-dark(#FFFFFF,#00994D);" vertex="1" parent="1">
          <mxGeometry x="1210" y="1250" width="100" height="70" as="geometry" />
        </mxCell>
        <mxCell id="ungy1zJnQsFXrOy20gZX-57" value="Editar Usuario" style="ellipse;whiteSpace=wrap;html=1;fontSize=15;fillColor=light-dark(#FFFFFF,#00994D);" vertex="1" parent="1">
          <mxGeometry x="1210" y="1335" width="100" height="70" as="geometry" />
        </mxCell>
        <mxCell id="ungy1zJnQsFXrOy20gZX-58" value="Eliminar Usuario" style="ellipse;whiteSpace=wrap;html=1;fontSize=15;" vertex="1" parent="1">
          <mxGeometry x="1210" y="1425" width="100" height="70" as="geometry" />
        </mxCell>
        <mxCell id="ungy1zJnQsFXrOy20gZX-59" value="Crear Rol" style="ellipse;whiteSpace=wrap;html=1;fontSize=15;" vertex="1" parent="1">
          <mxGeometry x="1140" y="1140" width="130" height="80" as="geometry" />
        </mxCell>
      </root>
    </mxGraphModel>
  </diagram>
</mxfile>
